REM DIRINDEX 1\3,1\4,1\5,1\6,1\2\7,1\2\8,1\2\9,1\10
REM DIRNAME cjc056,folder01,folder02,folder03,folder04,folder05,folder06,folder07,folder08,folder09
TITLE ""
FILE "2-61 Level 6-ì˙èÌï\åª.mp3" MP3
  TRACK 01 AUDIO
    TITLE "0:"
    INDEX 01 00:00:00
  TRACK 02 AUDIO
    TITLE "10:cjc056_3641"
    INDEX 01 00:00:09
  TRACK 03 AUDIO
    TITLE "0:"
    INDEX 01 00:04:19
  TRACK 04 AUDIO
    TITLE "6:cjc056_3642"
    INDEX 01 00:04:68
  TRACK 05 AUDIO
    TITLE "0:"
    INDEX 01 00:06:06
  TRACK 06 AUDIO
    TITLE "6:cjc056_3643"
    INDEX 01 00:06:53
  TRACK 07 AUDIO
    TITLE "0:"
    INDEX 01 00:07:47
  TRACK 08 AUDIO
    TITLE "6:cjc056_3644"
    INDEX 01 00:07:66
  TRACK 09 AUDIO
    TITLE "0:"
    INDEX 01 00:08:64
  TRACK 10 AUDIO
    TITLE "6:cjc056_3645"
    INDEX 01 00:09:38
  TRACK 11 AUDIO
    TITLE "0:"
    INDEX 01 00:11:23
  TRACK 12 AUDIO
    TITLE "6:cjc056_3646"
    INDEX 01 00:11:27
  TRACK 13 AUDIO
    TITLE "0:"
    INDEX 01 00:12:60
  TRACK 14 AUDIO
    TITLE "6:cjc056_3647"
    INDEX 01 00:13:37
  TRACK 15 AUDIO
    TITLE "0:"
    INDEX 01 00:15:05
  TRACK 16 AUDIO
    TITLE "6:cjc056_3648"
    INDEX 01 00:15:21
  TRACK 17 AUDIO
    TITLE "0:"
    INDEX 01 00:16:49
  TRACK 18 AUDIO
    TITLE "6:cjc056_3649"
    INDEX 01 00:17:29
  TRACK 19 AUDIO
    TITLE "0:"
    INDEX 01 00:18:54
  TRACK 20 AUDIO
    TITLE "6:cjc056_3650"
    INDEX 01 00:18:62
  TRACK 21 AUDIO
    TITLE "0:"
    INDEX 01 00:20:51
  TRACK 22 AUDIO
    TITLE "6:cjc056_3651"
    INDEX 01 00:21:23
  TRACK 23 AUDIO
    TITLE "0:"
    INDEX 01 00:22:60
  TRACK 24 AUDIO
    TITLE "6:cjc056_3652"
    INDEX 01 00:22:62
  TRACK 25 AUDIO
    TITLE "0:"
    INDEX 01 00:24:57
  TRACK 26 AUDIO
    TITLE "6:cjc056_3653"
    INDEX 01 00:25:31
  TRACK 27 AUDIO
    TITLE "0:"
    INDEX 01 00:28:74
  TRACK 28 AUDIO
    TITLE "6:cjc056_3654"
    INDEX 01 00:29:01
  TRACK 29 AUDIO
    TITLE "0:"
    INDEX 01 00:30:57
  TRACK 30 AUDIO
    TITLE "6:cjc056_3655"
    INDEX 01 00:31:33
  TRACK 31 AUDIO
    TITLE "0:"
    INDEX 01 00:32:72
  TRACK 32 AUDIO
    TITLE "6:cjc056_3656"
    INDEX 01 00:32:74
  TRACK 33 AUDIO
    TITLE "0:"
    INDEX 01 00:34:45
  TRACK 34 AUDIO
    TITLE "6:cjc056_3657"
    INDEX 01 00:35:19
  TRACK 35 AUDIO
    TITLE "0:"
    INDEX 01 00:36:60
  TRACK 36 AUDIO
    TITLE "6:cjc056_3658"
    INDEX 01 00:36:68
  TRACK 37 AUDIO
    TITLE "0:"
    INDEX 01 00:38:41
  TRACK 38 AUDIO
    TITLE "6:cjc056_3659"
    INDEX 01 00:39:13
  TRACK 39 AUDIO
    TITLE "0:"
    INDEX 01 00:40:48
  TRACK 40 AUDIO
    TITLE "6:cjc056_3660"
    INDEX 01 00:40:56
  TRACK 41 AUDIO
    TITLE "0:"
    INDEX 01 00:42:25
  TRACK 42 AUDIO
    TITLE "6:cjc056_3661"
    INDEX 01 00:42:74
  TRACK 43 AUDIO
    TITLE "0:"
    INDEX 01 00:44:24
  TRACK 44 AUDIO
    TITLE "6:cjc056_3662"
    INDEX 01 00:44:69
  TRACK 45 AUDIO
    TITLE "0:"
    INDEX 01 00:46:39
  TRACK 46 AUDIO
    TITLE "6:cjc056_3663"
    INDEX 01 00:46:47
  TRACK 47 AUDIO
    TITLE "0:"
    INDEX 01 00:48:53
  TRACK 48 AUDIO
    TITLE "6:cjc056_3664"
    INDEX 01 00:49:23
  TRACK 49 AUDIO
    TITLE "0:"
    INDEX 01 00:51:16
  TRACK 50 AUDIO
    TITLE "6:cjc056_3665"
    INDEX 01 00:51:18
  TRACK 51 AUDIO
    TITLE "0:"
    INDEX 01 00:53:31
  TRACK 52 AUDIO
    TITLE "6:cjc056_3666"
    INDEX 01 00:54:05
  TRACK 53 AUDIO
    TITLE "0:"
    INDEX 01 00:55:59
  TRACK 54 AUDIO
    TITLE "6:cjc056_3667"
    INDEX 01 00:55:63
  TRACK 55 AUDIO
    TITLE "0:"
    INDEX 01 00:57:09
  TRACK 56 AUDIO
    TITLE "6:cjc056_3668"
    INDEX 01 00:57:60
  TRACK 57 AUDIO
    TITLE "0:"
    INDEX 01 00:59:18
  TRACK 58 AUDIO
    TITLE "6:cjc056_3669"
    INDEX 01 00:59:20
  TRACK 59 AUDIO
    TITLE "0:"
    INDEX 01 01:00:55
  TRACK 60 AUDIO
    TITLE "6:cjc056_3670"
    INDEX 01 01:01:27
  TRACK 61 AUDIO
    TITLE "0:"
    INDEX 01 01:02:69
  TRACK 62 AUDIO
    TITLE "6:cjc056_3671"
    INDEX 01 01:03:00
  TRACK 63 AUDIO
    TITLE "0:"
    INDEX 01 01:04:66
  TRACK 64 AUDIO
    TITLE "6:cjc056_3672"
    INDEX 01 01:05:42
  TRACK 65 AUDIO
    TITLE "0:"
    INDEX 01 01:07:35
  TRACK 66 AUDIO
    TITLE "6:cjc056_3673"
    INDEX 01 01:07:43
  TRACK 67 AUDIO
    TITLE "0:"
    INDEX 01 01:09:42
  TRACK 68 AUDIO
    TITLE "6:cjc056_3674"
    INDEX 01 01:10:16
  TRACK 69 AUDIO
    TITLE "0:"
    INDEX 01 01:13:32
  TRACK 70 AUDIO
    TITLE "6:cjc056_3675"
    INDEX 01 01:13:44
  TRACK 71 AUDIO
    TITLE "0:"
    INDEX 01 01:15:25
  TRACK 72 AUDIO
    TITLE "6:cjc056_3676"
    INDEX 01 01:15:74
  TRACK 73 AUDIO
    TITLE "0:"
    INDEX 01 01:17:37
  TRACK 74 AUDIO
    TITLE "6:cjc056_3677"
    INDEX 01 01:17:45
  TRACK 75 AUDIO
    TITLE "0:"
    INDEX 01 01:18:54
  TRACK 76 AUDIO
    TITLE "6:cjc056_3678"
    INDEX 01 01:19:27
  TRACK 77 AUDIO
    TITLE "0:"
    INDEX 01 01:20:42
  TRACK 78 AUDIO
    TITLE "6:cjc056_3679"
    INDEX 01 01:21:18
  TRACK 79 AUDIO
    TITLE "0:"
    INDEX 01 01:23:05
  TRACK 80 AUDIO
    TITLE "6:cjc056_3680"
    INDEX 01 01:23:18
  TRACK 81 AUDIO
    TITLE "0:"
    INDEX 01 01:24:63
  TRACK 82 AUDIO
    TITLE "6:cjc056_3681"
    INDEX 01 01:25:35
  TRACK 83 AUDIO
    TITLE "0:"
    INDEX 01 01:28:37
  TRACK 84 AUDIO
    TITLE "6:cjc056_3682"
    INDEX 01 01:28:41
  TRACK 85 AUDIO
    TITLE "0:"
    INDEX 01 01:30:17
  TRACK 86 AUDIO
    TITLE "6:cjc056_3683"
    INDEX 01 01:30:66
  TRACK 87 AUDIO
    TITLE "0:"
    INDEX 01 01:34:08
  TRACK 88 AUDIO
    TITLE "6:cjc056_3684"
    INDEX 01 01:34:26
  TRACK 89 AUDIO
    TITLE "0:"
    INDEX 01 01:36:05
  TRACK 90 AUDIO
    TITLE "6:cjc056_3685"
    INDEX 01 01:36:58
  TRACK 91 AUDIO
    TITLE "0:"
    INDEX 01 01:38:28
  TRACK 92 AUDIO
    TITLE "6:cjc056_3686"
    INDEX 01 01:38:38
  TRACK 93 AUDIO
    TITLE "0:"
    INDEX 01 01:39:74
  TRACK 94 AUDIO
    TITLE "6:cjc056_3687"
    INDEX 01 01:40:46
  TRACK 95 AUDIO
    TITLE "0:"
    INDEX 01 01:41:65
  TRACK 96 AUDIO
    TITLE "6:cjc056_3688"
    INDEX 01 01:42:18
  TRACK 97 AUDIO
    TITLE "0:"
    INDEX 01 01:43:64
  TRACK 98 AUDIO
    TITLE "6:cjc056_3689"
    INDEX 01 01:44:38
  TRACK 99 AUDIO
    TITLE "0:"
    INDEX 01 01:46:00
  TRACK 100 AUDIO
    TITLE "6:cjc056_3690"
    INDEX 01 01:46:08
  TRACK 101 AUDIO
    TITLE "0:"
    INDEX 01 01:47:66
  TRACK 102 AUDIO
    TITLE "6:cjc056_3691"
    INDEX 01 01:48:38
  TRACK 103 AUDIO
    TITLE "0:"
    INDEX 01 01:49:67
  TRACK 104 AUDIO
    TITLE "6:cjc056_3692"
    INDEX 01 01:50:00
  TRACK 105 AUDIO
    TITLE "0:"
    INDEX 01 01:50:68
  TRACK 106 AUDIO
    TITLE "10:cjc056_3693"
    INDEX 01 01:52:26
  TRACK 107 AUDIO
    TITLE "0:"
    INDEX 01 01:55:58
